<svg width="24" height="24" viewBox="0 0 24 24" fill="none" xmlns="http://www.w3.org/2000/svg">
<path fill-rule="evenodd" clip-rule="evenodd" d="M6.5073 12.1298C6.82081 11.9523 7.20557 11.9571 7.5145 12.1425L12 14.8338L16.4855 12.1425C16.7944 11.9571 17.1792 11.9523 17.4927 12.1298C17.8062 12.3073 18 12.6397 18 13V17C18 17.3513 17.8157 17.6768 17.5145 17.8575L12.5145 20.8575C12.1978 21.0475 11.8022 21.0475 11.4855 20.8575L6.4855 17.8575C6.1843 17.6768 6 17.3513 6 17V13C6 12.6397 6.19379 12.3073 6.5073 12.1298ZM8 14.7662V16.4338L12 18.8338L16 16.4338V14.7662L12.5145 16.8575C12.1978 17.0475 11.8022 17.0475 11.4855 16.8575L8 14.7662Z" fill="white"/>
<path fill-rule="evenodd" clip-rule="evenodd" d="M6.5073 3.1298C6.82081 2.95229 7.20557 2.95715 7.5145 3.14251L12 5.83381L16.4855 3.14251C16.7944 2.95715 17.1792 2.95229 17.4927 3.1298C17.8062 3.30731 18 3.63973 18 4V8C18 8.35126 17.8157 8.67677 17.5145 8.85749L12.5145 11.8575C12.1978 12.0475 11.8022 12.0475 11.4855 11.8575L6.4855 8.85749C6.1843 8.67677 6 8.35126 6 8V4C6 3.63973 6.19379 3.30731 6.5073 3.1298ZM8 5.76619V7.43381L12 9.83381L16 7.43381V5.76619L12.5145 7.85749C12.1978 8.0475 11.8022 8.0475 11.4855 7.85749L8 5.76619Z" fill="white"/>
</svg>
