<?xml version="1.0" encoding="utf-8"?>
<!-- Generator: Adobe Illustrator 26.3.1, SVG Export Plug-In . SVG Version: 6.00 Build 0)  -->
<svg version="1.1" id="Слой_1" xmlns="http://www.w3.org/2000/svg" xmlns:xlink="http://www.w3.org/1999/xlink" x="0px" y="0px"
	 viewBox="0 0 24 24" style="enable-background:new 0 0 24 24;" xml:space="preserve">
<style type="text/css">
	.st0{fill:#FFFFFF;}
</style>
<g>
	<path class="st0" d="M12,22C6.5,22,2,17.5,2,12C2,6.5,6.5,2,12,2c5.5,0,10,4.5,10,10C22,17.5,17.5,22,12,22z M12,4
		c-4.4,0-8,3.6-8,8s3.6,8,8,8s8-3.6,8-8S16.4,4,12,4z"/>
</g>
<g>
	<circle class="st0" cx="12" cy="12" r="2"/>
</g>
<g>
	<path class="st0" d="M13.4,11.6c-0.3,0-0.5-0.1-0.7-0.3c-0.4-0.4-0.4-1,0-1.4l2.6-2.6c0.4-0.4,1-0.4,1.4,0s0.4,1,0,1.4l-2.6,2.6
		C13.9,11.5,13.7,11.6,13.4,11.6z"/>
</g>
<g>
	<g>
		<path class="st0" d="M7,13c-0.6,0-1-0.4-1-1c0-1.6,0.6-3.1,1.8-4.2C8.9,6.6,10.4,6,12,6c0.6,0,1,0.4,1,1s-0.4,1-1,1
			c-1.1,0-2.1,0.4-2.8,1.2C8.4,9.9,8,10.9,8,12C8,12.6,7.6,13,7,13z"/>
	</g>
</g>
</svg>
