<?xml version="1.0" encoding="utf-8"?>
<!-- Generator: Adobe Illustrator 26.3.1, SVG Export Plug-In . SVG Version: 6.00 Build 0)  -->
<svg version="1.1" id="Слой_1" xmlns="http://www.w3.org/2000/svg" xmlns:xlink="http://www.w3.org/1999/xlink" x="0px" y="0px"
	 viewBox="0 0 1024 1024" style="enable-background:new 0 0 1024 1024;" xml:space="preserve">
<g id="icomoon-ignore">
</g>
<g>
	<path d="M512,928c-56.1,0-110.6-11-161.9-32.7c-49.5-21-94-50.9-132.2-89.1s-68.2-82.7-89.1-132.2C107,622.6,96,568.1,96,512
		s11-110.6,32.7-161.9c21-49.5,50.9-94,89.1-132.2s82.7-68.2,132.2-89.1C401.4,107,455.9,96,512,96s110.6,11,161.9,32.7
		c49.5,21,94,50.9,132.2,89.1s68.2,82.7,89.1,132.2C917,401.4,928,455.9,928,512s-11,110.6-32.7,161.9c-21,49.5-50.9,94-89.1,132.2
		s-82.7,68.2-132.2,89.1C622.6,917,568.1,928,512,928z M512,160c-194.1,0-352,157.9-352,352c0,194.1,157.9,352,352,352
		c194.1,0,352-157.9,352-352C864,317.9,706.1,160,512,160z"/>
</g>
<g>
	<path d="M469.3,629.3c-8.2,0-16.4-3.1-22.6-9.4l-85.3-85.3c-12.5-12.5-12.5-32.8,0-45.3c12.5-12.5,32.8-12.5,45.3,0l62.7,62.7
		l148-148c12.5-12.5,32.8-12.5,45.3,0c12.5,12.5,12.5,32.8,0,45.3L492,620C485.7,626.2,477.5,629.3,469.3,629.3z"/>
</g>
</svg>
