<svg width="24" height="24" viewBox="0 0 24 24" fill="none" xmlns="http://www.w3.org/2000/svg">
<path fill-rule="evenodd" clip-rule="evenodd" d="M12 6.83341C8.5942 6.83341 5.83329 9.59433 5.83329 13.0001C5.83329 16.4058 8.5942 19.1667 12 19.1667C15.4057 19.1667 18.1666 16.4058 18.1666 13.0001C18.1666 9.59433 15.4057 6.83341 12 6.83341ZM4.16663 13.0001C4.16663 8.67385 7.67373 5.16675 12 5.16675C16.3262 5.16675 19.8333 8.67385 19.8333 13.0001C19.8333 17.3263 16.3262 20.8334 12 20.8334C7.67373 20.8334 4.16663 17.3263 4.16663 13.0001Z" fill="#80899E"/>
<path fill-rule="evenodd" clip-rule="evenodd" d="M12 9.16675C12.4602 9.16675 12.8333 9.53984 12.8333 10.0001V12.1667H14C14.4602 12.1667 14.8333 12.5398 14.8333 13.0001C14.8333 13.4603 14.4602 13.8334 14 13.8334H12C11.5397 13.8334 11.1666 13.4603 11.1666 13.0001V10.0001C11.1666 9.53984 11.5397 9.16675 12 9.16675Z" fill="#80899E"/>
<path fill-rule="evenodd" clip-rule="evenodd" d="M7.67396 3.50975C7.94466 3.88196 7.86237 4.40314 7.49016 4.67384L4.74016 6.67384C4.36795 6.94454 3.84677 6.86225 3.57607 6.49004C3.30537 6.11783 3.38766 5.59665 3.75987 5.32595L6.50987 3.32595C6.88209 3.05525 7.40327 3.13754 7.67396 3.50975Z" fill="#80899E"/>
<path fill-rule="evenodd" clip-rule="evenodd" d="M16.3261 3.50975C16.5968 3.13754 17.118 3.05525 17.4902 3.32595L20.2402 5.32595C20.6124 5.59665 20.6947 6.11783 20.424 6.49004C20.1533 6.86225 19.6321 6.94454 19.2599 6.67384L16.5099 4.67384C16.1377 4.40314 16.0554 3.88196 16.3261 3.50975Z" fill="#80899E"/>
</svg>
