<?xml version="1.0" encoding="utf-8"?>
<!-- Generator: Adobe Illustrator 26.3.1, SVG Export Plug-In . SVG Version: 6.00 Build 0)  -->
<svg version="1.1" id="Слой_1" xmlns="http://www.w3.org/2000/svg" xmlns:xlink="http://www.w3.org/1999/xlink" x="0px" y="0px"
	 viewBox="0 0 24 24" style="enable-background:new 0 0 24 24;" xml:space="preserve">
<style type="text/css">
	.st0{fill:#80899E;}
</style>
<g>
	<path class="st0" d="M11.7,21.8H6c-0.8,0-1.5-0.3-2-0.8s-0.8-1.2-0.8-2V7c0-0.8,0.3-1.5,0.8-2s1.2-0.8,2-0.8h2
		c0.5,0,0.8,0.4,0.8,0.8S8.5,5.8,8,5.8H6C5.7,5.8,5.4,6,5.2,6.2S4.8,6.7,4.8,7v12c0,0.3,0.1,0.6,0.3,0.8C5.4,20,5.7,20.2,6,20.2h5.7
		c0.5,0,0.8,0.4,0.8,0.8S12.2,21.8,11.7,21.8z"/>
</g>
<g>
	<path class="st0" d="M22,18.8h-4c-0.5,0-0.8-0.4-0.8-0.8v-4c0-0.5,0.4-0.8,0.8-0.8s0.8,0.4,0.8,0.8v3.2H22c0.5,0,0.8,0.4,0.8,0.8
		S22.5,18.8,22,18.8z"/>
</g>
<g>
	<path class="st0" d="M18,11.8c-0.5,0-0.8-0.4-0.8-0.8V7c0-0.3-0.1-0.6-0.3-0.8C16.6,6,16.3,5.8,16,5.8h-2c-0.5,0-0.8-0.4-0.8-0.8
		s0.4-0.8,0.8-0.8h2c0.8,0,1.5,0.3,2,0.8s0.8,1.2,0.8,2v4C18.8,11.5,18.5,11.8,18,11.8z"/>
</g>
<g>
	<path class="st0" d="M12,7.8h-2C8.4,7.8,7.2,6.6,7.2,5S8.4,2.2,10,2.2h2c1.6,0,2.8,1.3,2.8,2.8S13.6,7.8,12,7.8z M10,3.8
		C9.4,3.8,8.8,4.4,8.8,5S9.4,6.2,10,6.2h2c0.6,0,1.2-0.5,1.2-1.2S12.6,3.8,12,3.8H10z"/>
</g>
<g>
	<path class="st0" d="M18,22.8c-2.7,0-4.8-2.2-4.8-4.8s2.2-4.8,4.8-4.8s4.8,2.2,4.8,4.8S20.7,22.8,18,22.8z M18,14.8
		c-1.7,0-3.2,1.4-3.2,3.2s1.4,3.2,3.2,3.2s3.2-1.4,3.2-3.2S19.7,14.8,18,14.8z"/>
</g>
<g>
	<path class="st0" d="M12,11.8H8c-0.5,0-0.8-0.4-0.8-0.8s0.4-0.8,0.8-0.8h4c0.5,0,0.8,0.4,0.8,0.8S12.5,11.8,12,11.8z"/>
</g>
<g>
	<path class="st0" d="M11,15.8H8c-0.5,0-0.8-0.4-0.8-0.8s0.4-0.8,0.8-0.8h3c0.5,0,0.8,0.4,0.8,0.8S11.5,15.8,11,15.8z"/>
</g>
</svg>
