<?xml version="1.0" encoding="utf-8"?>
<!-- Generator: Adobe Illustrator 26.3.1, SVG Export Plug-In . SVG Version: 6.00 Build 0)  -->
<svg version="1.1" id="Слой_1" xmlns="http://www.w3.org/2000/svg" xmlns:xlink="http://www.w3.org/1999/xlink" x="0px" y="0px"
	 viewBox="0 0 40 40" style="enable-background:new 0 0 40 40;" xml:space="preserve">
<style type="text/css">
	.st0{fill:#FFFFFF;}
</style>
<g>
	<path class="st0" d="M31.7,14.3H25c-0.7,0-1.4-0.3-1.9-0.8s-0.8-1.2-0.8-1.9V5c0-0.6,0.4-1,1-1s1,0.4,1,1v6.7
		c0,0.2,0.1,0.3,0.2,0.5s0.3,0.2,0.5,0.2h6.7c0.6,0,1,0.4,1,1S32.2,14.3,31.7,14.3z"/>
</g>
<g>
	<path class="st0" d="M28.3,36H20c-0.6,0-1-0.4-1-1s0.4-1,1-1h8.3c0.6,0,1.2-0.2,1.7-0.7c0.4-0.4,0.7-1,0.7-1.6V13.7L22.9,6H11.7
		c-0.6,0-1.2,0.2-1.6,0.7c-0.4,0.4-0.7,1-0.7,1.7v5c0,0.6-0.4,1-1,1s-1-0.4-1-1v-5c0-1.2,0.5-2.2,1.3-3.1C9.4,4.5,10.5,4,11.7,4
		h11.7c0.3,0,0.5,0.1,0.7,0.3l8.3,8.3c0.2,0.2,0.3,0.4,0.3,0.7v18.3c0,1.2-0.5,2.2-1.3,3.1S29.5,36,28.3,36z"/>
</g>
<g>
	<path class="st0" d="M10,29.3c-3.3,0-6-2.7-6-6c0-3.3,2.7-6,6-6s6,2.7,6,6C16,26.6,13.3,29.3,10,29.3z M10,19.3c-2.2,0-4,1.8-4,4
		c0,2.2,1.8,4,4,4s4-1.8,4-4C14,21.1,12.2,19.3,10,19.3z"/>
</g>
<g>
	<path class="st0" d="M15,37.7c-0.2,0-0.3,0-0.4-0.1L10,35.3l-4.6,2.3c-0.4,0.2-0.8,0.1-1.1-0.1c-0.3-0.3-0.4-0.7-0.3-1.1L6.5,28
		c0.2-0.5,0.7-0.8,1.2-0.7c0.5,0.2,0.8,0.7,0.7,1.2l-1.8,6.1l2.9-1.5c0.3-0.1,0.6-0.1,0.9,0l2.9,1.5l-1.8-6.1
		c-0.2-0.5,0.1-1.1,0.7-1.2c0.5-0.2,1.1,0.1,1.2,0.7l2.5,8.3c0.1,0.4,0,0.8-0.3,1.1C15.5,37.6,15.2,37.7,15,37.7z"/>
</g>
</svg>
