<?xml version="1.0" encoding="utf-8"?>
<!-- Generator: Adobe Illustrator 26.3.1, SVG Export Plug-In . SVG Version: 6.00 Build 0)  -->
<svg version="1.1" id="Слой_1" xmlns="http://www.w3.org/2000/svg" xmlns:xlink="http://www.w3.org/1999/xlink" x="0px" y="0px"
	 viewBox="0 0 24 24" style="enable-background:new 0 0 24 24;" xml:space="preserve">
<style type="text/css">
	.st0{fill:#FFFFFF;}
</style>
<g>
	<path class="st0" d="M16,11H8c-0.4,0-0.7-0.2-0.9-0.5c-0.2-0.3-0.2-0.7,0-1l4-7c0.4-0.6,1.4-0.6,1.7,0l4,7c0.2,0.3,0.2,0.7,0,1
		C16.7,10.8,16.4,11,16,11z M9.7,9h4.6L12,5L9.7,9z"/>
</g>
<g>
	<path class="st0" d="M17,21c-2.2,0-4-1.8-4-4s1.8-4,4-4s4,1.8,4,4S19.2,21,17,21z M17,15c-1.1,0-2,0.9-2,2s0.9,2,2,2s2-0.9,2-2
		S18.1,15,17,15z"/>
</g>
<g>
	<path class="st0" d="M9,21H5c-1.1,0-2-0.9-2-2v-4c0-1.1,0.9-2,2-2h4c1.1,0,2,0.9,2,2v4C11,20.1,10.1,21,9,21z M5,15v4h4v-4H5z"/>
</g>
</svg>
