<?xml version="1.0" encoding="utf-8"?>
<!-- Generator: Adobe Illustrator 26.3.1, SVG Export Plug-In . SVG Version: 6.00 Build 0)  -->
<svg version="1.1" id="Слой_1" xmlns="http://www.w3.org/2000/svg" xmlns:xlink="http://www.w3.org/1999/xlink" x="0px" y="0px"
	 viewBox="0 0 40 40" style="enable-background:new 0 0 40 40;" xml:space="preserve">
<style type="text/css">
	.st0{fill:#FFFFFF;}
</style>
<g>
	<path class="st0" d="M16.7,27.7c-6.1,0-11-4.9-11-11c0-6.1,4.9-11,11-11c6.1,0,11,4.9,11,11C27.7,22.7,22.7,27.7,16.7,27.7z
		 M16.7,7.7c-5,0-9,4-9,9s4,9,9,9s9-4,9-9S21.6,7.7,16.7,7.7z"/>
</g>
<g>
	<path class="st0" d="M23.3,34.3H10c-1.2,0-2.2-0.5-3.1-1.3c-0.8-0.8-1.3-1.9-1.3-3.1v-1.7c0-1.2,0.5-2.2,1.3-3.1
		C7.8,24.5,8.8,24,10,24h0.8c0.6,0,1,0.4,1,1s-0.4,1-1,1H10c-0.6,0-1.2,0.2-1.6,0.7c-0.4,0.4-0.7,1-0.7,1.6V30
		c0,0.6,0.2,1.2,0.7,1.7c0.4,0.4,1,0.7,1.6,0.7h13.3c0.6,0,1.2-0.2,1.7-0.7c0.4-0.4,0.7-1,0.7-1.7v-1.7c0-0.6-0.2-1.2-0.7-1.6
		c-0.4-0.4-1-0.7-1.7-0.7h-0.8c-0.6,0-1-0.4-1-1s0.4-1,1-1h0.8c1.2,0,2.2,0.5,3.1,1.3s1.3,1.9,1.3,3.1V30c0,1.2-0.5,2.2-1.3,3.1
		C25.6,33.9,24.5,34.3,23.3,34.3z"/>
</g>
<g>
	<path class="st0" d="M26.7,29.3c-0.5,0-0.9-0.4-1-0.9c-0.1-0.5,0.3-1,0.9-1.1c1.3-0.2,2.6-0.7,3.6-1.4c1.1-0.7,2-1.7,2.6-2.9
		s1-2.4,1.1-3.7s-0.2-2.6-0.7-3.8l-0.8-1.8c-0.2-0.5,0-1.1,0.5-1.3c0.5-0.2,1.1,0,1.3,0.5l0.8,1.8c0.6,1.5,0.9,3.1,0.9,4.7
		c-0.1,1.6-0.5,3.2-1.3,4.6c-0.8,1.4-1.9,2.6-3.3,3.5c-1.3,0.9-2.9,1.5-4.5,1.7C26.8,29.3,26.7,29.3,26.7,29.3z"/>
</g>
<g>
	<path class="st0" d="M16.7,17.7c-0.6,0-1-0.4-1-1s0.4-1,1-1s1,0.4,1,1v0C17.7,17.2,17.2,17.7,16.7,17.7z"/>
</g>
<g>
	<path class="st0" d="M33.3,16c-1.5,0-2.7-1.2-2.7-2.7c0-1.5,1.2-2.7,2.7-2.7c1.5,0,2.7,1.2,2.7,2.7C36,14.8,34.8,16,33.3,16z
		 M33.3,12.7c-0.4,0-0.7,0.3-0.7,0.7S33,14,33.3,14c0.4,0,0.7-0.3,0.7-0.7S33.7,12.7,33.3,12.7z"/>
</g>
</svg>
