<?xml version="1.0" encoding="utf-8"?>
<!-- Generator: Adobe Illustrator 26.3.1, SVG Export Plug-In . SVG Version: 6.00 Build 0)  -->
<svg version="1.1" id="Слой_1" xmlns="http://www.w3.org/2000/svg" xmlns:xlink="http://www.w3.org/1999/xlink" x="0px" y="0px"
	 viewBox="0 0 24 24" style="enable-background:new 0 0 24 24;" xml:space="preserve">
<style type="text/css">
	.st0{fill:#FFFFFF;}
</style>
<g>
	<path class="st0" d="M22,15.8c-0.5,0-0.8-0.4-0.8-0.8v-4.8l-8.9,3.5c-0.2,0.1-0.4,0.1-0.6,0l-10-4C1.4,9.6,1.2,9.3,1.2,9
		s0.2-0.6,0.5-0.8l10-4c0.2-0.1,0.4-0.1,0.6,0l10,4c0.1,0,0.2,0.1,0.2,0.1c0,0,0.1,0.1,0.1,0.1c0.1,0.1,0.2,0.3,0.2,0.5l0,0
		c0,0,0,0,0,0v0c0,0,0,0,0,0c0,0,0,0,0,0v6C22.8,15.5,22.5,15.8,22,15.8z M4.2,9l7.8,3.1L19.8,9L12,5.9L4.2,9z"/>
</g>
<g>
	<path class="st0" d="M12,19.8c-1.7,0-3.4-0.3-4.6-1C6,18.2,5.2,17.1,5.2,16v-5.4c0-0.5,0.4-0.8,0.8-0.8s0.8,0.4,0.8,0.8V16
		c0,0.5,0.5,1,1.3,1.4c2,1,5.7,1,7.7,0c0.8-0.4,1.3-0.9,1.3-1.4v-5.4c0-0.5,0.4-0.8,0.8-0.8s0.8,0.4,0.8,0.8V16
		c0,1.1-0.8,2.2-2.2,2.9C15.4,19.5,13.7,19.8,12,19.8z"/>
</g>
</svg>
