<?xml version="1.0" encoding="utf-8"?>
<!-- Generator: Adobe Illustrator 26.3.1, SVG Export Plug-In . SVG Version: 6.00 Build 0)  -->
<svg version="1.1" id="Слой_1" xmlns="http://www.w3.org/2000/svg" xmlns:xlink="http://www.w3.org/1999/xlink" x="0px" y="0px"
	 viewBox="0 0 24 24" style="enable-background:new 0 0 24 24;" xml:space="preserve">
<style type="text/css">
	.st0{fill:#0C999C;}
</style>
<g>
	<path class="st0" d="M17.1,21c-0.1,0-0.1,0-0.2,0L10,21c-0.9,0-1.7-0.3-2.4-0.8c-0.1,0.1-0.1,0.1-0.2,0.2C7,20.8,6.5,21,6,21H4
		c-0.5,0-1-0.2-1.4-0.6S2,19.5,2,19v-7c0-0.5,0.2-1,0.6-1.4S3.5,10,4,10h3c0.8,0,1.6-0.3,2.1-0.9C9.7,8.6,10,7.8,10,7V6
		c0-0.8,0.3-1.6,0.9-2.1c1.1-1.1,3.1-1.1,4.2,0C15.7,4.4,16,5.2,16,6v4h2c0.8,0,1.6,0.3,2.1,0.9c0.6,0.6,0.9,1.3,0.9,2.1
		c0,0.1,0,0.1,0,0.2l-1,5c-0.2,0.8-0.6,1.5-1.1,2C18.4,20.7,17.8,21,17.1,21z M8,17c0,0.5,0.2,1,0.6,1.4C9,18.8,9.5,19,10,19h7
		c0.3,0,0.4-0.1,0.5-0.2c0.2-0.2,0.4-0.6,0.5-1l1-4.9c0-0.2-0.1-0.5-0.3-0.6C18.5,12.1,18.3,12,18,12h-3c-0.6,0-1-0.4-1-1V6
		c0-0.3-0.1-0.5-0.3-0.7c-0.4-0.4-1-0.4-1.4,0C12.1,5.5,12,5.7,12,6v1c0,1.3-0.5,2.6-1.5,3.5C9.8,11.2,9,11.7,8,11.9V17z M4,12v7h2
		v-7H4z"/>
</g>
</svg>
