<?xml version="1.0" encoding="utf-8"?>
<!-- Generator: Adobe Illustrator 26.3.1, SVG Export Plug-In . SVG Version: 6.00 Build 0)  -->
<svg version="1.1" id="Слой_1" xmlns="http://www.w3.org/2000/svg" xmlns:xlink="http://www.w3.org/1999/xlink" x="0px" y="0px"
	 viewBox="0 0 24 24" style="enable-background:new 0 0 24 24;" xml:space="preserve">
<style type="text/css">
	.st0{fill:#FFFFFF;}
</style>
<g>
	<path class="st0" d="M12,17c-2.8,0-5-2.2-5-5s2.2-5,5-5s5,2.2,5,5S14.8,17,12,17z M12,9c-1.7,0-3,1.3-3,3s1.3,3,3,3s3-1.3,3-3
		S13.7,9,12,9z"/>
</g>
<g>
	<path class="st0" d="M12,22C6.5,22,2,17.5,2,12C2,6.5,6.5,2,12,2c5.5,0,10,4.5,10,10C22,17.5,17.5,22,12,22z M12,4
		c-4.4,0-8,3.6-8,8s3.6,8,8,8s8-3.6,8-8S16.4,4,12,4z"/>
</g>
<g>
	<path class="st0" d="M18.3,19.3c-0.3,0-0.5-0.1-0.7-0.3l-3.3-3.3c-0.4-0.4-0.4-1,0-1.4s1-0.4,1.4,0l3.3,3.3c0.4,0.4,0.4,1,0,1.4
		C18.9,19.3,18.6,19.3,18.3,19.3z"/>
</g>
<g>
	<path class="st0" d="M5.6,19.3c-0.3,0-0.5-0.1-0.7-0.3c-0.4-0.4-0.4-1,0-1.4l3.4-3.3c0.4-0.4,1-0.4,1.4,0s0.4,1,0,1.4l-3.4,3.3
		C6.2,19.3,5.9,19.3,5.6,19.3z"/>
</g>
<g>
	<path class="st0" d="M9,10c-0.3,0-0.5-0.1-0.7-0.3L4.9,6.4c-0.4-0.4-0.4-1,0-1.4s1-0.4,1.4,0l3.4,3.4c0.4,0.4,0.4,1,0,1.4
		C9.5,9.9,9.3,10,9,10z"/>
</g>
<g>
	<path class="st0" d="M15,10c-0.3,0-0.5-0.1-0.7-0.3c-0.4-0.4-0.4-1,0-1.4l3.3-3.4c0.4-0.4,1-0.4,1.4,0c0.4,0.4,0.4,1,0,1.4
		l-3.3,3.4C15.5,9.9,15.3,10,15,10z"/>
</g>
</svg>
