<?xml version="1.0" encoding="utf-8"?>
<!-- Generator: Adobe Illustrator 26.3.1, SVG Export Plug-In . SVG Version: 6.00 Build 0)  -->
<svg version="1.1" id="Слой_1" xmlns="http://www.w3.org/2000/svg" xmlns:xlink="http://www.w3.org/1999/xlink" x="0px" y="0px"
	 viewBox="0 0 24 24" style="enable-background:new 0 0 24 24;" xml:space="preserve">
<style type="text/css">
	.st0{fill:#2B3541;}
</style>
<g>
	<path class="st0" d="M12,15c-2.2,0-4-1.8-4-4c0-2.2,1.8-4,4-4c2.2,0,4,1.8,4,4C16,13.2,14.2,15,12,15z M12,9c-1.1,0-2,0.9-2,2
		s0.9,2,2,2c1.1,0,2-0.9,2-2S13.1,9,12,9z"/>
</g>
<g>
	<path class="st0" d="M12,22.5c-0.8,0-1.6-0.3-2.1-0.9l-4.2-4.2c-1.3-1.3-2.1-2.9-2.5-4.6C2.8,11,3,9.2,3.7,7.6s1.8-3,3.3-4
		c3-2,7-2,10,0c1.5,1,2.6,2.4,3.3,4c0.7,1.7,0.9,3.4,0.5,5.2c-0.3,1.8-1.2,3.3-2.5,4.6l0,0l-4.2,4.2C13.6,22.2,12.8,22.5,12,22.5z
		 M12,4c-1.4,0-2.7,0.4-3.9,1.2C7,6,6.1,7,5.5,8.3C5,9.6,4.9,11,5.1,12.4C5.4,13.7,6.1,15,7,16l4.2,4.2c0.4,0.4,1,0.4,1.4,0L17,16
		c1-1,1.6-2.2,1.9-3.6c0.3-1.4,0.1-2.8-0.4-4C17.9,7,17,6,15.9,5.2C14.7,4.4,13.4,4,12,4z M17.7,16.7L17.7,16.7L17.7,16.7z"/>
</g>
</svg>
