<?xml version="1.0" encoding="utf-8"?>
<!-- Generator: Adobe Illustrator 26.3.1, SVG Export Plug-In . SVG Version: 6.00 Build 0)  -->
<svg version="1.1" id="Слой_1" xmlns="http://www.w3.org/2000/svg" xmlns:xlink="http://www.w3.org/1999/xlink" x="0px" y="0px"
	 viewBox="0 0 25 24" style="enable-background:new 0 0 25 24;" xml:space="preserve">
<style type="text/css">
	.st0{fill:#FFFFFF;}
</style>
<g>
	<path class="st0" d="M16.5,22h-8c-0.6,0-1-0.4-1-1s0.4-1,1-1h8c0.6,0,1,0.4,1,1S17.1,22,16.5,22z"/>
</g>
<g>
	<path class="st0" d="M12.5,22c-0.6,0-1-0.4-1-1v-4c0-0.6,0.4-1,1-1c0.6,0,1,0.4,1,1v4C13.5,21.6,13.1,22,12.5,22z"/>
</g>
<g>
	<path class="st0" d="M17.5,5h-10c-0.6,0-1-0.4-1-1s0.4-1,1-1h10c0.6,0,1,0.4,1,1S18.1,5,17.5,5z"/>
</g>
<g>
	<path class="st0" d="M12.5,18c-1.6,0-3.1-0.6-4.2-1.8c-1.1-1.1-1.8-2.6-1.8-4.2V4c0-0.6,0.4-1,1-1s1,0.4,1,1v8
		c0,1.1,0.4,2.1,1.2,2.8c1.5,1.5,4.1,1.5,5.7,0c0.8-0.8,1.2-1.8,1.2-2.8V4c0-0.6,0.4-1,1-1s1,0.4,1,1v8c0,1.6-0.6,3.1-1.8,4.2
		C15.6,17.4,14.1,18,12.5,18z"/>
</g>
<g>
	<path class="st0" d="M5.5,12c-1.7,0-3-1.3-3-3s1.3-3,3-3s3,1.3,3,3S7.2,12,5.5,12z M5.5,8c-0.6,0-1,0.4-1,1s0.4,1,1,1s1-0.4,1-1
		S6.1,8,5.5,8z"/>
</g>
<g>
	<path class="st0" d="M19.5,12c-1.7,0-3-1.3-3-3s1.3-3,3-3s3,1.3,3,3S21.2,12,19.5,12z M19.5,8c-0.6,0-1,0.4-1,1s0.4,1,1,1
		s1-0.4,1-1S20.1,8,19.5,8z"/>
</g>
</svg>
