<?xml version="1.0" encoding="utf-8"?>
<!-- Generator: Adobe Illustrator 26.3.1, SVG Export Plug-In . SVG Version: 6.00 Build 0)  -->
<svg version="1.1" id="Слой_1" xmlns="http://www.w3.org/2000/svg" xmlns:xlink="http://www.w3.org/1999/xlink" x="0px" y="0px"
	 viewBox="0 0 25 24" style="enable-background:new 0 0 25 24;" xml:space="preserve">
<style type="text/css">
	.st0{fill:#FFFFFF;}
</style>
<g>
	<path class="st0" d="M12.5,22c-0.6,0-1-0.4-1-1v-4c0-0.6,0.4-1,1-1c0.6,0,1,0.4,1,1v4C13.5,21.6,13.1,22,12.5,22z"/>
</g>
<g>
	<path class="st0" d="M12.5,14c-0.6,0-1-0.4-1-1V9c0-0.6,0.4-1,1-1c0.6,0,1,0.4,1,1v4C13.5,13.6,13.1,14,12.5,14z"/>
</g>
<g>
	<path class="st0" d="M12.5,6c-0.6,0-1-0.4-1-1V3c0-0.6,0.4-1,1-1c0.6,0,1,0.4,1,1v2C13.5,5.6,13.1,6,12.5,6z"/>
</g>
<g>
	<path class="st0" d="M14.5,22h-4c-0.6,0-1-0.4-1-1s0.4-1,1-1h4c0.6,0,1,0.4,1,1S15.1,22,14.5,22z"/>
</g>
<g>
	<path class="st0" d="M19.5,10h-11c-0.6,0-1-0.4-1-1V5c0-0.6,0.4-1,1-1h11c0.3,0,0.5,0.1,0.7,0.3l2,2c0.4,0.4,0.4,1,0,1.4l-2,2
		C20,9.9,19.8,10,19.5,10z M9.5,8h9.6l1-1l-1-1H9.5V8z"/>
</g>
<g>
	<path class="st0" d="M14.5,18h-8c-0.3,0-0.5-0.1-0.7-0.3l-2-2c-0.4-0.4-0.4-1,0-1.4l2-2C6,12.1,6.2,12,6.5,12h8c0.6,0,1,0.4,1,1v4
		C15.5,17.6,15.1,18,14.5,18z M6.9,16h6.6v-2H6.9l-1,1L6.9,16z"/>
</g>
</svg>
