<svg width="129" height="48" viewBox="0 0 129 48" fill="none" xmlns="http://www.w3.org/2000/svg">
<path fill-rule="evenodd" clip-rule="evenodd" d="M49.254 48.0001H22.5883C32.269 44.448 41.2834 39.2929 49.254 32.7505V48.0001Z" fill="#DB1515"/>
<path fill-rule="evenodd" clip-rule="evenodd" d="M49.254 11.2099V26.2407C43.8687 30.8118 38.1387 34.9606 32.115 38.6499C24.8311 43.1019 17.3872 46.4809 9.50574 47.0363C6.06364 47.2804 0.315588 46.7838 0.0126163 42.4076C-0.496545 35.0311 16.3815 21.0396 22.1927 17.9384C19.6343 20.3622 17.9385 22.8449 17.7196 24.1493C17.5724 25.0246 18.5991 25.4369 19.5501 24.6164C30.8568 15.3379 40.9559 10.9406 49.254 11.2099Z" fill="#005958"/>
<path fill-rule="evenodd" clip-rule="evenodd" d="M0.0294189 0V31.9425C7.99505 21.8182 19.8362 13.5496 31.1387 8.19707C33.8192 6.93469 36.7521 8.01192 35.3467 11.1048C38.8309 9.31218 46.199 7.69633 49.2539 7.77207V0H0.0294189Z" fill="#005958"/>
<path fill-rule="evenodd" clip-rule="evenodd" d="M116.421 23.4173C117.431 23.4314 118.425 23.1726 119.299 22.6683C120.161 22.1689 120.867 21.4407 121.34 20.5643C121.853 19.6004 122.111 18.5212 122.089 17.4294C122.109 16.3419 121.851 15.2674 121.34 14.3071C120.867 13.4307 120.161 12.7025 119.299 12.2031C118.42 11.7107 117.429 11.4522 116.421 11.4522C115.413 11.4522 114.422 11.7107 113.543 12.2031C112.684 12.7032 111.981 13.4314 111.511 14.3071C110.998 15.2712 110.74 16.3503 110.761 17.442C110.743 18.5267 111.001 19.5983 111.511 20.5559C111.982 21.4321 112.687 22.1604 113.547 22.6599C114.42 23.1658 115.413 23.4274 116.421 23.4173ZM116.421 28.3364C114.342 28.3701 112.288 27.8872 110.442 26.9309C108.707 26.0287 107.258 24.6609 106.258 22.9811C105.257 21.3013 104.745 19.3759 104.778 17.421C104.748 15.4646 105.264 13.5386 106.268 11.8594C107.272 10.1801 108.725 8.81426 110.463 7.91524C112.32 6.98803 114.368 6.50537 116.444 6.50537C118.521 6.50537 120.568 6.98803 122.426 7.91524C124.165 8.81176 125.619 10.1772 126.623 11.8571C127.627 13.537 128.141 15.4643 128.107 17.421C128.14 19.3806 127.623 21.3103 126.616 22.9912C125.608 24.6721 124.149 26.037 122.405 26.9309C120.557 27.8872 118.501 28.3701 116.421 28.3364ZM93.9928 23.6572C94.7979 23.7124 95.599 23.5025 96.2735 23.0596C96.5311 22.8584 96.7363 22.5981 96.8719 22.3007C97.0074 22.0033 97.0692 21.6776 97.052 21.3512C97.052 19.87 96.0323 19.1308 93.9928 19.1336H89.7344V23.6572H93.9928ZM83.8938 6.92637H101.411V11.513H89.7344V14.8794H95.1626C97.6874 14.8794 99.6371 15.4194 101.012 16.4994C102.386 17.5795 103.065 19.1294 103.048 21.1492C103.048 23.2532 102.291 24.9364 100.772 26.1104C99.2528 27.2844 97.1193 27.8945 94.3842 27.8945H83.8643L83.8938 6.92637ZM81.0787 23.2111V32.2035H75.6504V27.9156H58.4273V6.92637H64.2763V23.2111H72.343V6.92637H78.192V23.2111H81.0787Z" fill="#005958"/>
<path fill-rule="evenodd" clip-rule="evenodd" d="M124.273 41.524C124.58 41.5322 124.884 41.4534 125.148 41.2968C125.393 41.1487 125.581 40.9237 125.683 40.6572V39.9755H124.319C123.57 39.9755 123.192 40.2238 123.192 40.7287C123.188 40.8416 123.212 40.9538 123.261 41.0552C123.311 41.1566 123.386 41.2439 123.478 41.3094C123.713 41.4644 123.992 41.5396 124.273 41.524ZM124.475 37.2151C125.038 37.1769 125.594 37.3561 126.028 37.7158C126.219 37.9101 126.367 38.1433 126.461 38.3996C126.554 38.6558 126.592 38.9292 126.571 39.2012V42.1468H125.729V41.503C125.576 41.7364 125.356 41.9182 125.098 42.0248C124.79 42.1526 124.459 42.2143 124.126 42.2057C123.656 42.2285 123.192 42.0888 122.813 41.8101C122.653 41.6883 122.525 41.53 122.438 41.3485C122.352 41.167 122.31 40.9675 122.316 40.7666C122.311 40.5689 122.35 40.3725 122.432 40.1924C122.514 40.0123 122.635 39.8532 122.788 39.7272C123.227 39.4305 123.754 39.2925 124.282 39.3359H125.683V39.1634C125.694 39.0015 125.67 38.8392 125.612 38.6875C125.555 38.5357 125.466 38.3981 125.35 38.2839C125.075 38.0632 124.726 37.955 124.374 37.9809C124.088 37.9835 123.804 38.0318 123.533 38.124C123.279 38.2085 123.042 38.3382 122.834 38.5069L122.451 37.8421C122.72 37.6311 123.027 37.474 123.356 37.3792C123.718 37.2678 124.096 37.2125 124.475 37.2151ZM121.016 37.2614V42.151H120.133V38.0356H118.029L117.974 39.1339C117.956 39.686 117.897 40.236 117.797 40.7792C117.739 41.1587 117.595 41.5199 117.376 41.8354C117.283 41.9639 117.159 42.0672 117.016 42.1362C116.873 42.2053 116.715 42.2378 116.556 42.2309C116.37 42.2288 116.186 42.2004 116.009 42.1468L116.068 41.402C116.139 41.4195 116.213 41.4293 116.286 41.4314C116.4 41.435 116.513 41.4065 116.611 41.3492C116.709 41.2919 116.789 41.2081 116.842 41.1074C116.971 40.8702 117.052 40.61 117.082 40.3416C117.115 40.047 117.153 39.6262 117.183 39.0792L117.263 37.2698L121.016 37.2614ZM113.042 41.4314C113.337 41.4366 113.628 41.3609 113.884 41.2126C114.128 41.0687 114.326 40.8586 114.456 40.6067C114.597 40.3275 114.671 40.019 114.671 39.7062C114.671 39.3933 114.597 39.0848 114.456 38.8057C114.323 38.5533 114.12 38.3445 113.871 38.2039C113.612 38.0665 113.323 37.9947 113.03 37.9947C112.736 37.9947 112.447 38.0665 112.188 38.2039C111.939 38.3454 111.735 38.5539 111.599 38.8057C111.455 39.084 111.38 39.3928 111.38 39.7062C111.38 40.0195 111.455 40.3283 111.599 40.6067C111.735 40.8596 111.939 41.0695 112.188 41.2126C112.447 41.3623 112.743 41.438 113.042 41.4314ZM113.042 42.2057C112.585 42.213 112.134 42.1014 111.733 41.8817C111.353 41.6767 111.038 41.369 110.825 40.9938C110.609 40.5988 110.496 40.1561 110.496 39.7062C110.496 39.2563 110.609 38.8135 110.825 38.4185C111.037 38.0436 111.353 37.7371 111.733 37.5349C112.137 37.3247 112.585 37.2149 113.04 37.2149C113.495 37.2149 113.943 37.3247 114.347 37.5349C114.725 37.7395 115.038 38.0456 115.251 38.4185C115.464 38.8145 115.575 39.2568 115.575 39.7062C115.575 40.1555 115.464 40.5979 115.251 40.9938C115.037 41.367 114.724 41.6741 114.347 41.8817C113.947 42.1003 113.498 42.2119 113.042 42.2057ZM107.496 40.1017H106.482V42.1678H105.619V37.2614H106.503V39.3275H107.538L109.125 37.2614H110.076L108.22 39.6136L110.202 42.1384H109.162L107.496 40.1017ZM103.881 37.2782V42.1678H96.9215V37.2614H97.8052V41.3767H99.9639V37.2614H100.848V41.3767H102.998V37.2614L103.881 37.2782ZM93.0586 39.2517H95.5203V40.0176H93.0418L93.0586 39.2517ZM90.3571 42.2225C89.8921 42.2302 89.4329 42.1187 89.0232 41.8985C88.6416 41.6926 88.3241 41.3854 88.1059 41.0106C87.8878 40.6165 87.7734 40.1735 87.7734 39.723C87.7734 39.2726 87.8878 38.8295 88.1059 38.4354C88.3232 38.061 88.6409 37.7549 89.0232 37.5517C89.4339 37.3347 89.8927 37.2248 90.3571 37.2319C90.7671 37.2263 91.1725 37.3186 91.5396 37.5012C91.8809 37.6718 92.1626 37.9417 92.3475 38.2755L91.6742 38.6963C91.5335 38.4732 91.336 38.2917 91.1019 38.1703C90.8672 38.0522 90.6072 37.993 90.3445 37.9978C90.0506 37.9943 89.7607 38.0668 89.5029 38.2081C89.2487 38.3467 89.0398 38.5556 88.9012 38.8099C88.7526 39.0864 88.6772 39.3965 88.6824 39.7104C88.6767 40.027 88.7521 40.3399 88.9012 40.6193C89.0314 40.8783 89.2348 41.0934 89.4861 41.2379C89.7435 41.3807 90.0334 41.4546 90.3277 41.4525C90.5908 41.4559 90.8507 41.3953 91.0851 41.2757C91.3201 41.1557 91.518 40.9738 91.6574 40.7497L92.3307 41.1705C92.146 41.5055 91.8643 41.7769 91.5227 41.949C91.1603 42.1265 90.7606 42.2145 90.3571 42.2057V42.2225ZM84.4366 37.9641C84.0438 37.9508 83.6609 38.0895 83.3677 38.3512C83.0793 38.6143 82.9005 38.9764 82.867 39.3653H86.0019C85.9654 38.9784 85.7871 38.6187 85.5012 38.3554C85.2097 38.0932 84.8285 37.9531 84.4366 37.9641ZM86.8519 39.7356C86.8496 39.8243 86.8426 39.9128 86.8309 40.0007H82.867C82.8882 40.203 82.9493 40.399 83.0468 40.5774C83.1443 40.7558 83.2763 40.9131 83.4351 41.0401C83.778 41.3075 84.2039 41.446 84.6385 41.4314C84.9026 41.4417 85.1657 41.394 85.4093 41.2914C85.6529 41.1889 85.871 41.0342 86.0482 40.8381L86.5363 41.4104C86.3086 41.674 86.0196 41.8778 85.6947 42.0037C85.3441 42.1427 84.9694 42.2114 84.5923 42.2057C84.1154 42.2158 83.6437 42.1058 83.2205 41.8859C82.8308 41.6866 82.5076 41.3781 82.2905 40.998C82.0805 40.6013 81.9707 40.1593 81.9707 39.7104C81.9707 39.2615 82.0805 38.8195 82.2905 38.4228C82.4952 38.052 82.798 37.7449 83.1658 37.5349C83.5514 37.3197 83.9866 37.2095 84.4281 37.2151C84.8701 37.2058 85.3063 37.3163 85.6905 37.5349C86.049 37.7457 86.3408 38.0535 86.5321 38.4228C86.7472 38.8266 86.8572 39.2781 86.8519 39.7356ZM76.1637 37.2614H77.0474V39.3359H79.8331V37.2614H80.7167V42.151H79.8331V40.1017H77.0474V42.151H76.1637V37.2614ZM73.7905 39.6052C74.0789 39.6678 74.3424 39.8142 74.5479 40.026C74.6374 40.1201 74.7073 40.2311 74.7535 40.3524C74.7997 40.4738 74.8214 40.6031 74.8172 40.7329C74.8186 41.0181 74.7118 41.2933 74.5184 41.503C74.2979 41.7457 74.018 41.9269 73.7063 42.029C73.3304 42.1598 72.9345 42.2239 72.5365 42.2183C72.1768 42.2192 71.8186 42.1711 71.4719 42.0752C71.1435 41.9835 70.8312 41.8416 70.5461 41.6545L70.8112 40.9812C71.0614 41.1337 71.332 41.2499 71.615 41.3262C71.9123 41.4086 72.2196 41.4496 72.5281 41.4483C72.8749 41.4649 73.2201 41.391 73.5296 41.2337C73.6397 41.1803 73.7327 41.0973 73.7981 40.994C73.8635 40.8906 73.8988 40.7711 73.8999 40.6488C73.9037 40.542 73.8778 40.4363 73.825 40.3434C73.7723 40.2505 73.6948 40.1742 73.6011 40.1228C73.3434 39.9837 73.0518 39.9196 72.7595 39.9376H71.8632V39.3106H72.7048C72.9714 39.3218 73.236 39.2607 73.4707 39.1339C73.5574 39.0874 73.6298 39.0182 73.6802 38.9337C73.7306 38.8492 73.7571 38.7526 73.7568 38.6542C73.7555 38.5449 73.7232 38.4382 73.6636 38.3465C73.604 38.2549 73.5196 38.1821 73.4202 38.1366C73.1366 38.0028 72.8245 37.9406 72.5113 37.9557C71.9768 37.9674 71.4513 38.0951 70.9712 38.3302L70.7313 37.6485C71.3113 37.353 71.9529 37.1987 72.6038 37.1982C72.964 37.193 73.3225 37.2485 73.6642 37.3624C73.9463 37.4533 74.1999 37.6156 74.4006 37.8336C74.5731 38.0221 74.6692 38.2682 74.6699 38.5237C74.672 38.7618 74.5867 38.9924 74.4301 39.1718C74.2571 39.372 74.0332 39.5217 73.7821 39.6052H73.7905ZM64.8023 37.2614H65.686V40.8171L68.6862 37.2572H69.4857V42.1468H68.6021V38.5911L65.6144 42.151H64.8023V37.2614ZM61.0152 41.4693C61.3094 41.4751 61.5999 41.4025 61.8567 41.2589C62.0968 41.1206 62.2935 40.918 62.4248 40.674C62.5604 40.4144 62.6297 40.1253 62.6268 39.8324C62.6391 39.6185 62.6082 39.4043 62.5359 39.2026C62.4636 39.0009 62.3514 38.8158 62.206 38.6584C61.9793 38.4237 61.6868 38.2631 61.367 38.1978C61.0473 38.1325 60.7152 38.1656 60.4146 38.2927C60.114 38.4197 59.859 38.6349 59.683 38.9097C59.507 39.1845 59.4184 39.5062 59.4288 39.8324C59.4266 40.1262 59.499 40.4158 59.6392 40.674C59.7732 40.9174 59.971 41.1196 60.2114 41.2589C60.4659 41.4065 60.7546 41.4849 61.0488 41.4861L61.0152 41.4693ZM61.1708 37.4128C61.5958 37.4051 62.0153 37.5096 62.3869 37.7158C62.7408 37.9119 63.0324 38.2036 63.2285 38.5574C63.4399 38.9396 63.5473 39.3705 63.5399 39.8072C63.55 40.2492 63.4395 40.6856 63.2201 41.0695C63.0092 41.4295 62.6997 41.7216 62.328 41.9111C61.9205 42.1185 61.4682 42.2226 61.011 42.2141C60.6468 42.235 60.2829 42.1696 59.9487 42.0234C59.6146 41.8772 59.3197 41.6542 59.0879 41.3725C58.597 40.6712 58.3582 39.8242 58.4104 38.9698C58.363 38.1387 58.5795 37.3139 59.029 36.6133C59.4952 36.0111 60.1714 35.6069 60.9226 35.4814L63.1528 34.9849L63.279 35.797L61.2256 36.2388C60.6873 36.3298 60.1888 36.5805 59.7949 36.9584C59.4546 37.3678 59.2658 37.882 59.2604 38.4143C59.4651 38.1068 59.7445 37.8563 60.0726 37.6864C60.4247 37.5159 60.8136 37.4349 61.2045 37.4507L61.1708 37.4128Z" fill="#DB1515"/>
</svg>
